<svg width="20" height="20" viewBox="0 0 20 20" fill="none" xmlns="http://www.w3.org/2000/svg">
<path fill-rule="evenodd" clip-rule="evenodd" d="M1.875 10C1.875 5.5142 5.5142 1.875 10 1.875C14.4858 1.875 18.125 5.5142 18.125 10C18.125 14.4858 14.4858 18.125 10 18.125C5.5142 18.125 1.875 14.4858 1.875 10ZM10 3.125C6.20455 3.125 3.125 6.20455 3.125 10C3.125 13.7954 6.20455 16.875 10 16.875C13.7954 16.875 16.875 13.7954 16.875 10C16.875 6.20455 13.7954 3.125 10 3.125ZM9.81837 6.43134C10.0634 6.18822 10.4591 6.18976 10.7023 6.43478L13.803 9.55978C14.0448 9.80346 14.0448 10.1965 13.803 10.4402L10.7023 13.5652C10.4591 13.8102 10.0634 13.8118 9.81837 13.5687C9.57335 13.3255 9.57181 12.9298 9.81494 12.6848L11.8588 10.625H6.64062C6.29545 10.625 6.01562 10.3452 6.01562 10C6.01562 9.65482 6.29545 9.375 6.64062 9.375H11.8588L9.81494 7.31522C9.57181 7.07019 9.57335 6.67447 9.81837 6.43134Z" fill="#F7F9FA"/>
</svg>
