<svg width="20" height="20" viewBox="0 0 20 20" fill="none" xmlns="http://www.w3.org/2000/svg">
<path fill-rule="evenodd" clip-rule="evenodd" d="M5.83366 3.125C5.25836 3.125 4.79199 3.59137 4.79199 4.16667V15.8333C4.79199 16.4086 5.25836 16.875 5.83366 16.875H14.167C14.7423 16.875 15.2087 16.4086 15.2087 15.8333V7.29167H12.5003C11.6949 7.29167 11.042 6.63875 11.042 5.83333V3.125H5.83366ZM12.292 4.00888L14.3248 6.04167H12.5003C12.3853 6.04167 12.292 5.94839 12.292 5.83333V4.00888ZM3.54199 4.16667C3.54199 2.90101 4.56801 1.875 5.83366 1.875H11.667C11.8328 1.875 11.9917 1.94085 12.1089 2.05806L16.2756 6.22472C16.3928 6.34193 16.4587 6.50091 16.4587 6.66667V15.8333C16.4587 17.099 15.4326 18.125 14.167 18.125H5.83366C4.56801 18.125 3.54199 17.099 3.54199 15.8333V4.16667ZM10.0003 8.54167C10.3455 8.54167 10.6253 8.82149 10.6253 9.16667V12.6578L12.0584 11.2247C12.3025 10.9806 12.6982 10.9806 12.9423 11.2247C13.1863 11.4688 13.1863 11.8645 12.9423 12.1086L10.4423 14.6086C10.1982 14.8527 9.80246 14.8527 9.55838 14.6086L7.05838 12.1086C6.81431 11.8645 6.81431 11.4688 7.05838 11.2247C7.30246 10.9806 7.69819 10.9806 7.94227 11.2247L9.37533 12.6578V9.16667C9.37533 8.82149 9.65515 8.54167 10.0003 8.54167Z" fill="#F7F9FA"/>
</svg>
