<svg width="71" height="24" viewBox="0 0 71 24" fill="none" xmlns="http://www.w3.org/2000/svg">
<g clip-path="url(#clip0_1427_367004)">
<path d="M31.5201 16.2566C30.9891 16.2566 30.5064 16.1604 30.072 16.0161C29.6376 15.8718 29.2514 15.6314 28.9135 15.2947C28.5756 14.958 28.3343 14.5732 28.1412 14.0923C27.9481 13.6113 27.8516 13.0342 27.8516 12.4089V12.1204C27.8516 11.5432 27.9481 11.0142 28.1412 10.5332C28.3343 10.1003 28.6239 9.71558 28.9618 9.37891C29.2997 9.04224 29.6858 8.84985 30.1203 8.65747C30.5547 8.51318 31.0374 8.41699 31.5201 8.41699C32.051 8.41699 32.4855 8.46509 32.9199 8.60937C33.3061 8.75366 33.644 8.94605 33.9336 9.18652C34.2232 9.427 34.4163 9.71558 34.6094 10.0522C34.7542 10.3889 34.8507 10.7256 34.899 11.1104H33.0164C32.9199 10.7737 32.7268 10.4851 32.5337 10.2927C32.2924 10.1003 32.0028 10.0042 31.5683 10.0042C31.327 10.0042 31.0856 10.0522 30.8926 10.1484C30.6995 10.2446 30.5064 10.3408 30.3133 10.5332C30.1685 10.7256 30.0237 10.918 29.9272 11.2065C29.8306 11.447 29.7824 11.7837 29.7824 12.1685V12.457C29.7824 12.8418 29.8306 13.1785 29.9272 13.467C30.0237 13.7556 30.1202 13.9961 30.3133 14.1404C30.4581 14.3328 30.6512 14.4771 30.8926 14.5252C31.0856 14.6213 31.327 14.6694 31.5683 14.6694C31.9545 14.6694 32.2441 14.5732 32.5337 14.3809C32.7751 14.1885 32.9682 13.8999 33.0647 13.5632H34.9472C34.899 13.9961 34.8024 14.3328 34.6094 14.6694C34.4163 15.0061 34.1749 15.2947 33.8853 15.5352C33.5957 15.7756 33.2578 15.968 32.8716 16.0642C32.4372 16.2085 32.0028 16.2566 31.5201 16.2566Z" fill="white"/>
<path d="M38.7108 16.2083C38.2764 16.2083 37.8902 16.1602 37.6006 16.1121C37.311 16.0159 37.0213 15.8716 36.8283 15.6792C36.6352 15.4868 36.4904 15.1982 36.3938 14.8616C36.2973 14.5249 36.249 14.092 36.249 13.6111V6.25244H38.1316V13.3706C38.1316 13.6111 38.1316 13.8035 38.1798 13.9478C38.2281 14.092 38.2764 14.2363 38.3246 14.3325C38.4212 14.4287 38.5177 14.5249 38.6143 14.5249C38.7591 14.573 38.9039 14.573 39.097 14.573C39.1935 14.573 39.29 14.573 39.3866 14.573C39.4831 14.573 39.5314 14.573 39.6279 14.573V16.1121C39.5797 16.1121 39.5314 16.1121 39.4348 16.1602C39.3866 16.1602 39.29 16.1602 39.1935 16.1602C39.097 16.1602 39.0487 16.1602 38.9521 16.1602H38.7108V16.2083Z" fill="white"/>
<path d="M41.8973 7.83985C41.5594 7.83985 41.2698 7.74365 41.0767 7.55127C40.8836 7.35889 40.7871 7.11841 40.7871 6.82984C40.7871 6.54126 40.8836 6.30078 41.0767 6.1084C41.2698 5.91602 41.5594 5.81982 41.8973 5.81982C42.2352 5.81982 42.5248 5.91602 42.7179 6.1084C42.911 6.30078 43.0075 6.54126 43.0075 6.82984C43.0075 7.11841 42.911 7.35889 42.7179 7.55127C42.5248 7.74365 42.2835 7.83985 41.8973 7.83985ZM40.9802 8.65747H42.8627V16.1123H40.9802V8.65747Z" fill="white"/>
<path d="M47.98 16.2566C47.4491 16.2566 46.9664 16.1604 46.5319 16.0161C46.0975 15.8718 45.7114 15.6314 45.3735 15.2947C45.0356 14.958 44.7942 14.5732 44.6011 14.0923C44.4081 13.6113 44.3115 13.0342 44.3115 12.4089V12.1204C44.3115 11.5432 44.4081 11.0142 44.6011 10.5332C44.7942 10.1003 45.0838 9.71558 45.4217 9.37891C45.7596 9.04224 46.1458 8.84985 46.5802 8.65747C47.0146 8.51318 47.4973 8.41699 47.98 8.41699C48.511 8.41699 48.9454 8.46509 49.3799 8.60937C49.766 8.75366 50.1039 8.94605 50.3935 9.18652C50.6832 9.427 50.8762 9.71558 51.0693 10.0522C51.2141 10.3889 51.3107 10.7256 51.3589 11.1104H49.4764C49.3799 10.7737 49.1868 10.4851 48.9937 10.2927C48.7524 10.1003 48.4627 10.0042 48.0283 10.0042C47.787 10.0042 47.5456 10.0522 47.3525 10.1484C47.1594 10.2446 46.9664 10.3408 46.7733 10.5332C46.6285 10.7256 46.4837 10.918 46.3871 11.2065C46.2906 11.447 46.2423 11.7837 46.2423 12.1685V12.457C46.2423 12.8418 46.2906 13.1785 46.3871 13.467C46.4837 13.7556 46.5802 13.9961 46.7733 14.1404C46.9181 14.3328 47.1112 14.4771 47.3525 14.5252C47.5456 14.6213 47.787 14.6694 48.0283 14.6694C48.4145 14.6694 48.7041 14.5732 48.9937 14.3809C49.2351 14.1885 49.4281 13.8999 49.5247 13.5632H51.4072C51.3589 13.9961 51.2624 14.3328 51.0693 14.6694C50.8762 15.0061 50.6349 15.2947 50.3453 15.5352C50.0556 15.7756 49.7178 15.968 49.3316 16.0642C48.8972 16.2085 48.4627 16.2566 47.98 16.2566Z" fill="white"/>
<path d="M52.6621 16.1121V6.25244H54.4964V11.7354L57.2478 8.65723H59.4199L56.6202 11.7835L59.7095 16.1121H57.4891L55.3652 13.082L54.4964 13.9959V16.1121H52.6621Z" fill="white"/>
<path d="M7.72319 16.3045C4.73046 13.3225 4.77873 10.6292 7.72319 7.64722C10.6677 4.71338 13.419 4.66529 16.4118 7.64722C19.4045 10.6292 19.3563 13.3225 16.4118 16.3045C14.9154 17.7954 13.5156 18.5169 12.0675 18.5169C10.6194 18.565 9.21956 17.7954 7.72319 16.3045ZM4.10295 4.08814C1.39983 6.7815 0 9.37867 0 11.9758V12.0239C0 14.6211 1.35156 17.2183 4.10295 19.9116C6.85433 22.6531 9.46091 23.9998 12.0192 23.9998H12.0675C14.6741 23.9998 17.2806 22.605 19.9838 19.9116C25.4383 14.4768 25.4865 9.52296 19.9838 4.04004C17.2806 1.34668 14.6741 0 12.0675 0C9.41264 0 6.80606 1.34668 4.10295 4.08814Z" fill="url(#paint0_linear_1427_367004)"/>
<path d="M62.2686 8.70484C61.7376 8.70484 61.3032 8.56055 61.0135 8.22388C60.7239 7.88721 60.5791 7.40625 60.5791 6.78101V3.89526H61.7376V6.63672C61.7376 6.97339 61.8341 7.26197 61.9789 7.45435C62.1237 7.64673 62.3651 7.74292 62.703 7.74292C62.8961 7.74292 63.0409 7.69483 63.1857 7.64673C63.3305 7.59864 63.427 7.50244 63.5236 7.40625C63.6201 7.31006 63.6684 7.21387 63.7166 7.06958C63.7649 6.9253 63.7649 6.78101 63.7649 6.63672V3.84717H64.9234V8.56055H63.8132V7.83911C63.7166 8.07959 63.5236 8.27198 63.2822 8.41626C62.9926 8.60865 62.6547 8.70484 62.2686 8.70484Z" fill="url(#paint1_linear_1427_367004)"/>
<path d="M65.9375 10.3406V3.84766H67.0477V4.56909C67.1925 4.32861 67.3856 4.13623 67.6269 3.99194C67.8683 3.84766 68.2062 3.75146 68.5923 3.75146C69.2199 3.75146 69.7508 3.94385 70.0887 4.32861C70.4266 4.71338 70.6197 5.29053 70.6197 6.06006V6.25244C70.6197 6.63721 70.5714 7.02198 70.4749 7.31055C70.3783 7.59912 70.2335 7.8877 70.0887 8.08008C69.8956 8.27246 69.7026 8.41675 69.4612 8.51294C69.2199 8.60914 68.9302 8.65723 68.6406 8.65723C68.3027 8.65723 68.0614 8.60913 67.7718 8.46485C67.5304 8.32056 67.3373 8.12818 67.1442 7.8877V10.3406H65.9375ZM68.3027 7.69532C68.4475 7.69532 68.5923 7.64722 68.7372 7.59912C68.882 7.55103 68.9785 7.45484 69.075 7.31055C69.1716 7.21436 69.2681 7.02197 69.3164 6.87769C69.3647 6.6853 69.4129 6.49292 69.4129 6.25244V6.06006C69.4129 5.81958 69.3647 5.6272 69.3164 5.48291C69.2681 5.33862 69.1716 5.19434 69.075 5.05005C68.9785 4.95386 68.882 4.85767 68.7372 4.80957C68.5923 4.76148 68.4475 4.71338 68.3027 4.71338C68.1579 4.71338 67.9648 4.76148 67.82 4.80957C67.6752 4.85767 67.5304 4.95386 67.4339 5.05005C67.3373 5.14624 67.2408 5.29053 67.1925 5.43482C67.1442 5.5791 67.096 5.72339 67.096 5.91577V6.44483C67.096 6.63721 67.1442 6.82959 67.1925 6.97388C67.2408 7.11817 67.3373 7.26245 67.4339 7.35864C67.5304 7.45484 67.6752 7.55103 67.82 7.59912C67.9648 7.64722 68.1096 7.69532 68.3027 7.69532Z" fill="url(#paint2_linear_1427_367004)"/>
</g>
<defs>
<linearGradient id="paint0_linear_1427_367004" x1="3.87946" y1="20.0971" x2="19.9384" y2="4.07062" gradientUnits="userSpaceOnUse">
<stop stop-color="#0073FF"/>
<stop offset="1" stop-color="#00DEFF"/>
</linearGradient>
<linearGradient id="paint1_linear_1427_367004" x1="60.9303" y1="8.52626" x2="66.8994" y2="0.763938" gradientUnits="userSpaceOnUse">
<stop offset="0.1022" stop-color="#0073FF"/>
<stop offset="1" stop-color="#00DEFF"/>
</linearGradient>
<linearGradient id="paint2_linear_1427_367004" x1="64.113" y1="10.9739" x2="70.0821" y2="3.21154" gradientUnits="userSpaceOnUse">
<stop stop-color="#0073FF"/>
<stop offset="1" stop-color="#00DEFF"/>
</linearGradient>
<clipPath id="clip0_1427_367004">
<rect width="71" height="24" fill="white"/>
</clipPath>
</defs>
</svg>
