<svg width="20" height="20" viewBox="0 0 20 20" fill="none" xmlns="http://www.w3.org/2000/svg">
<path d="M15 8.75V15.9375C15 16.1427 14.9596 16.3459 14.8811 16.5354C14.8025 16.725 14.6874 16.8973 14.5424 17.0424C14.3973 17.1874 14.225 17.3025 14.0354 17.3811C13.8459 17.4596 13.6427 17.5 13.4375 17.5H4.0625C3.6481 17.5 3.25067 17.3354 2.95765 17.0424C2.66462 16.7493 2.5 16.3519 2.5 15.9375V6.5625C2.5 6.1481 2.66462 5.75067 2.95765 5.45765C3.25067 5.16462 3.6481 5 4.0625 5H10.6047" stroke="#F7F9FA" stroke-width="1.6" stroke-linecap="round" stroke-linejoin="round"/>
<path d="M18.1725 1.87508C18.1145 1.81135 18.0442 1.76003 17.9658 1.72424C17.8874 1.68845 17.8026 1.66893 17.7164 1.66685C17.6303 1.66478 17.5446 1.68019 17.4646 1.71216C17.3846 1.74412 17.3119 1.79199 17.2509 1.85285L16.7599 2.3415C16.7004 2.40105 16.667 2.48179 16.667 2.56597C16.667 2.65016 16.7004 2.7309 16.7599 2.79045L17.21 3.2398C17.2395 3.26944 17.2746 3.29297 17.3132 3.30902C17.3518 3.32507 17.3932 3.33333 17.435 3.33333C17.4769 3.33333 17.5183 3.32507 17.5569 3.30902C17.5955 3.29297 17.6306 3.26944 17.6601 3.2398L18.1387 2.76346C18.3809 2.52171 18.4035 2.12794 18.1725 1.87508Z" fill="#F7F9FA"/>
<path d="M15.4029 3.4647L6.37423 12.4755C6.31949 12.53 6.2797 12.5976 6.25869 12.672L5.84107 13.9156C5.83107 13.9493 5.83036 13.9851 5.83902 14.0193C5.84768 14.0534 5.86539 14.0845 5.89028 14.1094C5.91518 14.1343 5.94633 14.152 5.98045 14.1607C6.01457 14.1693 6.05039 14.1686 6.08414 14.1586L7.327 13.7411C7.40135 13.7201 7.46904 13.6803 7.52356 13.6256L16.5362 4.59779C16.6196 4.51354 16.6663 4.39979 16.6663 4.28127C16.6663 4.16274 16.6196 4.049 16.5362 3.96474L16.0385 3.4647C15.9542 3.38057 15.8399 3.33333 15.7207 3.33333C15.6015 3.33333 15.4872 3.38057 15.4029 3.4647Z" fill="#F7F9FA"/>
</svg>
