<svg width="24" height="24" viewBox="0 0 24 24" fill="none" xmlns="http://www.w3.org/2000/svg">
<path fill-rule="evenodd" clip-rule="evenodd" d="M1.01759 11.1645C4.0676 6.79251 8.02225 4.5 11.9841 4.5C16.6371 4.5 20.6453 7.53129 23.0101 11.1836L23.0112 11.1853C23.1677 11.4285 23.2509 11.7115 23.2509 12.0007C23.2509 12.2893 23.168 12.5718 23.0121 12.8146C20.6494 16.514 16.6671 19.5 11.9841 19.5C7.25127 19.5 3.34576 16.5203 0.988855 12.8317C0.82873 12.583 0.745679 12.2925 0.750173 11.9968C0.754679 11.7002 0.846976 11.4117 1.0154 11.1676L1.01758 11.1645L1.01759 11.1645ZM2.25001 12.0196L2.25209 12.0228L2.25208 12.0228C4.42901 15.4304 7.91813 18 11.9841 18C16.0045 18 19.5689 15.4195 21.7484 12.0065L21.7498 12.0043C21.7505 12.0032 21.7509 12.002 21.7509 12.0007C21.7509 11.9995 21.7506 11.9983 21.75 11.9973C19.5621 8.61916 15.9686 6 11.9841 6C8.63995 6 5.10025 7.93555 2.25001 12.0196ZM12 9C10.3432 9 9.00004 10.3431 9.00004 12C9.00004 13.6569 10.3432 15 12 15C13.6569 15 15 13.6569 15 12C15 10.3431 13.6569 9 12 9ZM7.50004 12C7.50004 9.51472 9.51476 7.5 12 7.5C14.4853 7.5 16.5 9.51472 16.5 12C16.5 14.4853 14.4853 16.5 12 16.5C9.51476 16.5 7.50004 14.4853 7.50004 12Z" fill="#F7F9FA"/>
</svg>
