<svg width="26" height="24" viewBox="0 0 26 24" fill="none" xmlns="http://www.w3.org/2000/svg">
<path d="M4.16332 9.17345C4.62879 8.2227 5.2494 7.34904 6.02518 6.60385C7.88704 4.75375 10.3437 3.75161 12.9554 3.75161H20.377V11.1263C20.377 13.7216 19.3685 16.1627 17.5066 18.0128C16.7567 18.758 15.8775 19.3747 14.9207 19.863V21.4818C14.9207 22.3041 14.8431 23.1263 14.688 24C16.7567 23.3576 18.6444 22.227 20.196 20.6852C22.756 18.1413 24.1783 14.7495 24.1783 11.152V0H12.9296C9.30929 0 5.89588 1.41328 3.33583 3.95717C1.78428 5.49893 0.672337 7.34904 0 9.43041C0.879211 9.27623 1.7067 9.19914 2.5342 9.19914L4.16332 9.17345Z" fill="#009B00"/>
<path d="M14.6895 23.9744L16.4996 18.8866C16.3186 19.0408 16.1117 19.1693 15.9048 19.2977C15.9048 19.2977 15.879 19.2977 15.879 19.3234C15.698 19.4262 15.5428 19.529 15.3618 19.6318C15.2842 19.6832 15.2066 19.7089 15.1291 19.7603C15.0515 19.786 14.9998 19.8373 14.9222 19.863V21.4819C14.8963 22.2785 14.8187 23.1007 14.6895 23.9744Z" fill="#077207"/>
<path d="M2.53568 9.17353H4.16481C4.19066 9.12214 4.24238 9.04505 4.26824 8.99366C4.31996 8.86518 4.39754 8.7624 4.47511 8.63392C4.55269 8.50544 4.63027 8.37696 4.70785 8.24848C4.75957 8.17139 4.81128 8.06861 4.88886 7.99152C4.9923 7.83734 5.09573 7.70886 5.19917 7.55469C5.22503 7.52899 5.25089 7.4776 5.27675 7.4519L0.0273438 9.40479C0.906554 9.25062 1.73405 9.17353 2.53568 9.17353Z" fill="#077207"/>
<path d="M11.1199 12.9765V12.9508H11.0938L11.1199 12.9765Z" fill="#FBB03B"/>
<path d="M10.9395 17.8844C10.9912 17.9615 11.0687 18.0386 11.1205 18.09L10.9395 17.8844Z" fill="#FFDF00"/>
<path d="M14.8953 21.4818V19.863V9.17346H4.13793H2.5088C1.68131 9.17346 0.85382 9.25055 -0.0253906 9.40472L1.65545 11.075L3.49145 12.8994L6.46525 12.9508H11.0682H11.1199V12.9765V18.09L11.1458 20.4797L12.9818 22.3041L14.6626 23.9743C14.8178 23.1007 14.8953 22.2784 14.8953 21.4818Z" fill="#FFDF00"/>
</svg>
