<svg width="154" height="100" viewBox="0 0 154 100" fill="none" xmlns="http://www.w3.org/2000/svg">
<g opacity="0.3" filter="url(#filter0_f_125_1123)">
<circle cx="77" cy="57" r="22" fill="#1C92E0"/>
</g>
<path d="M97.7855 43.1327L78.6084 37.2408C77.5634 36.9197 76.4359 36.9197 75.3916 37.2408L56.2138 43.1327C54.5954 43.6297 54.5954 45.7699 56.2138 46.267L59.5571 47.2941C58.8235 48.2009 58.3725 49.3071 58.3278 50.5185C57.6658 50.898 57.1997 51.5827 57.1997 52.4002C57.1997 53.1413 57.5902 53.7649 58.1525 54.1636L56.3973 62.0616C56.2447 62.7484 56.7672 63.4002 57.4705 63.4002H61.3281C62.0321 63.4002 62.5546 62.7484 62.402 62.0616L60.6468 54.1636C61.2092 53.7649 61.5997 53.1413 61.5997 52.4002C61.5997 51.6047 61.1548 50.9392 60.523 50.5529C60.5753 49.5202 61.1033 48.6072 61.9455 48.0284L75.3909 52.1595C76.0138 52.3507 77.2087 52.5892 78.6077 52.1595L97.7855 46.2677C99.4046 45.7699 99.4046 43.6304 97.7855 43.1327ZM79.254 54.2626C77.2925 54.8649 75.6212 54.5321 74.7447 54.2626L64.7745 51.1998L63.7997 59.0002C63.7997 61.4305 69.7094 63.4002 76.9997 63.4002C84.2899 63.4002 90.1997 61.4305 90.1997 59.0002L89.2248 51.1991L79.254 54.2626Z" fill="#1C92E0"/>
<defs>
<filter id="filter0_f_125_1123" x="0" y="-20" width="154" height="154" filterUnits="userSpaceOnUse" color-interpolation-filters="sRGB">
<feFlood flood-opacity="0" result="BackgroundImageFix"/>
<feBlend mode="normal" in="SourceGraphic" in2="BackgroundImageFix" result="shape"/>
<feGaussianBlur stdDeviation="27.5" result="effect1_foregroundBlur_125_1123"/>
</filter>
</defs>
</svg>
