<svg width="24" height="24" viewBox="0 0 24 24" fill="none" xmlns="http://www.w3.org/2000/svg">
<path d="M9.24935 4.66675H5.58268C5.07642 4.66675 4.66602 5.07715 4.66602 5.58341V9.25008C4.66602 9.75634 5.07642 10.1667 5.58268 10.1667H9.24935C9.75561 10.1667 10.166 9.75634 10.166 9.25008V5.58341C10.166 5.07715 9.75561 4.66675 9.24935 4.66675Z" stroke="#9DA1A3" stroke-width="1.25" stroke-linecap="round" stroke-linejoin="round"/>
<path d="M18.4173 4.66675H14.7507C14.2444 4.66675 13.834 5.07715 13.834 5.58341V9.25008C13.834 9.75634 14.2444 10.1667 14.7507 10.1667H18.4173C18.9236 10.1667 19.334 9.75634 19.334 9.25008V5.58341C19.334 5.07715 18.9236 4.66675 18.4173 4.66675Z" stroke="#9DA1A3" stroke-width="1.25" stroke-linecap="round" stroke-linejoin="round"/>
<path d="M9.24935 13.8333H5.58268C5.07642 13.8333 4.66602 14.2437 4.66602 14.7499V18.4166C4.66602 18.9228 5.07642 19.3333 5.58268 19.3333H9.24935C9.75561 19.3333 10.166 18.9228 10.166 18.4166V14.7499C10.166 14.2437 9.75561 13.8333 9.24935 13.8333Z" stroke="#9DA1A3" stroke-width="1.25" stroke-linecap="round" stroke-linejoin="round"/>
<path d="M18.4173 13.8333H14.7507C14.2444 13.8333 13.834 14.2437 13.834 14.7499V18.4166C13.834 18.9228 14.2444 19.3333 14.7507 19.3333H18.4173C18.9236 19.3333 19.334 18.9228 19.334 18.4166V14.7499C19.334 14.2437 18.9236 13.8333 18.4173 13.8333Z" stroke="#9DA1A3" stroke-width="1.25" stroke-linecap="round" stroke-linejoin="round"/>
</svg>
