<svg width="17" height="17" viewBox="0 0 17 17" fill="none" xmlns="http://www.w3.org/2000/svg">
<path fill-rule="evenodd" clip-rule="evenodd" d="M5 0C2.23858 0 0 2.23858 0 5V11.6667C0 14.4281 2.23858 16.6667 5 16.6667H11.6667C14.4281 16.6667 16.6667 14.4281 16.6667 11.6667V5C16.6667 2.23858 14.4281 0 11.6667 0H5ZM13.3333 4.16667C13.7936 4.16667 14.1667 3.79357 14.1667 3.33333C14.1667 2.8731 13.7936 2.5 13.3333 2.5C12.8731 2.5 12.5 2.8731 12.5 3.33333C12.5 3.79357 12.8731 4.16667 13.3333 4.16667ZM12.5 8.33333C12.5 10.6345 10.6345 12.5 8.33333 12.5C6.03215 12.5 4.16667 10.6345 4.16667 8.33333C4.16667 6.03215 6.03215 4.16667 8.33333 4.16667C10.6345 4.16667 12.5 6.03215 12.5 8.33333ZM8.33333 10.8333C9.71405 10.8333 10.8333 9.71405 10.8333 8.33333C10.8333 6.95262 9.71405 5.83333 8.33333 5.83333C6.95262 5.83333 5.83333 6.95262 5.83333 8.33333C5.83333 9.71405 6.95262 10.8333 8.33333 10.8333Z" fill="#F7F9FA" fill-opacity="0.75"/>
</svg>
