<svg width="272" height="214" viewBox="0 0 272 214" fill="none" xmlns="http://www.w3.org/2000/svg">
<path d="M136.31 211.384C194.925 211.384 242.367 164.38 242.367 106.386C242.367 48.392 194.925 1.55713 136.31 1.55713C77.8661 1.55713 30.252 48.5611 30.252 106.555C30.252 164.549 77.8661 211.384 136.31 211.384Z" fill="#17191B" stroke="#181A1D" stroke-width="3.11426" stroke-miterlimit="10"/>
<path d="M188.567 211.554C172.409 212.061 152.985 211.554 139.234 211.385C125.654 211.892 106.058 212.061 89.9004 211.554C105.886 202.593 111.559 185.854 112.246 174.864H165.877C167.08 185.685 172.753 202.593 188.567 211.554Z" fill="#757778" stroke="#3A3E42" stroke-width="3.11426" stroke-miterlimit="10"/>
<path d="M240.478 34.8657V173.003C240.478 176.554 237.728 179.09 234.634 179.09H44.8648C41.5989 179.09 39.0205 176.385 39.0205 173.003V34.8657C39.0205 31.6532 41.7708 28.7788 44.8648 28.7788H234.29C237.9 28.9479 240.478 31.6532 240.478 34.8657Z" fill="#757778" stroke="#3A3E42" stroke-width="3.11426" stroke-miterlimit="10"/>
<path d="M240.478 34.8657V153.728H39.0205V34.8657C39.0205 31.6532 41.7708 28.7788 44.8648 28.7788H234.29C237.9 28.9479 240.478 31.6532 240.478 34.8657Z" fill="#757778" stroke="#3A3E42" stroke-width="3.11426" stroke-miterlimit="10"/>
<rect x="53.5635" y="44.7878" width="58.0461" height="43.5599" fill="#626565"/>
<rect x="125.428" y="44.7878" width="96.7435" height="17.6962" fill="#626565"/>
<rect x="125.428" y="97.8765" width="96.7435" height="17.6962" fill="#626565"/>
<rect x="125.428" y="69.2898" width="96.7435" height="8.16749" fill="#626565"/>
<rect x="125.428" y="122.379" width="96.7435" height="8.1675" fill="#626565"/>
<rect x="53.5635" y="97.8765" width="58.0461" height="43.5599" fill="#626565"/>
<path d="M139.407 170.805C142.157 170.805 144.392 168.776 144.392 165.902C144.392 163.196 142.329 160.998 139.407 160.998C136.656 160.998 134.422 163.027 134.422 165.902C134.422 168.607 136.485 170.805 139.407 170.805Z" fill="#252729" stroke="#3A3E42" stroke-width="3.11426" stroke-miterlimit="10"/>
<path d="M0 211.891H271.59H0Z" fill="#757778"/>
<path d="M0 211.891H271.59" stroke="#3A3E42" stroke-width="3.11426" stroke-miterlimit="10"/>
<path d="M183.477 93.1125C183.477 98.9966 182.482 104.39 180.241 109.539C175.263 122.288 164.559 132.095 151.367 136.508C146.886 137.979 142.157 138.714 137.179 138.714C111.54 138.714 90.8799 118.365 90.8799 93.1125C90.8799 67.8599 111.54 47.5107 137.179 47.5107C162.817 47.5107 183.477 68.1051 183.477 93.1125Z" fill="#252729" stroke="#3A3E42" stroke-width="3.11426" stroke-miterlimit="10" stroke-linecap="round"/>
<path d="M147.549 87.3559V78.3229C147.549 73.3957 143.273 69.2898 138.142 69.2898C135.576 69.2898 133.296 70.3847 131.301 72.0271C129.59 73.6695 128.45 75.8593 128.45 78.5966V87.6297C125.885 89.272 123.889 91.1881 122.179 93.9254C120.754 96.389 119.898 99.4 119.898 102.411C119.898 111.992 127.88 119.656 137.857 119.656C147.834 119.656 155.815 111.992 155.815 102.411C156.1 95.8415 152.68 90.367 147.549 87.3559ZM140.137 104.053V108.707C140.137 109.254 139.567 109.802 138.997 109.802H137.002C136.432 109.802 135.861 109.254 135.861 108.707V105.696V104.053C134.151 103.232 133.296 101.316 133.581 99.4C133.866 97.7576 135.291 96.389 137.002 96.1153C139.852 95.5678 142.418 97.7576 142.418 100.221C142.418 101.864 141.562 103.232 140.137 104.053ZM142.988 85.4398C141.277 84.8924 139.852 84.6186 137.857 84.6186C136.146 84.6186 134.436 84.8924 132.726 85.4398V78.5966C132.726 77.2279 133.296 75.8593 134.151 75.0381C135.006 74.2169 136.432 73.6695 137.857 73.6695C140.707 73.6695 142.988 75.8593 142.988 78.5966V85.4398Z" fill="#454749"/>
</svg>
