<svg width="20" height="20" viewBox="0 0 20 20" fill="none" xmlns="http://www.w3.org/2000/svg">
<path fill-rule="evenodd" clip-rule="evenodd" d="M9.0638 4.375C8.81516 4.375 8.57671 4.47377 8.40089 4.64959C8.22507 4.8254 8.1263 5.06386 8.1263 5.3125V6.875C8.1263 7.22018 7.84648 7.5 7.5013 7.5C7.15612 7.5 6.8763 7.22018 6.8763 6.875V5.3125C6.8763 4.73234 7.10677 4.17594 7.51701 3.7657C7.92724 3.35547 8.48364 3.125 9.0638 3.125H15.3138C15.894 3.125 16.4504 3.35547 16.8606 3.7657C17.2708 4.17594 17.5013 4.73234 17.5013 5.3125V14.6875C17.5013 15.2677 17.2708 15.8241 16.8606 16.2343C16.4504 16.6445 15.894 16.875 15.3138 16.875H9.3763C8.78943 16.875 8.18763 16.6431 7.72975 16.2843C7.27426 15.9274 6.8763 15.373 6.8763 14.6875V13.125C6.8763 12.7798 7.15612 12.5 7.5013 12.5C7.84648 12.5 8.1263 12.7798 8.1263 13.125V14.6875C8.1263 14.8649 8.2344 15.0917 8.50069 15.3004C8.76459 15.5071 9.10029 15.625 9.3763 15.625H15.3138C15.5624 15.625 15.8009 15.5262 15.9767 15.3504C16.1525 15.1746 16.2513 14.9361 16.2513 14.6875V5.3125C16.2513 5.06386 16.1525 4.8254 15.9767 4.64959C15.8009 4.47377 15.5624 4.375 15.3138 4.375H9.0638ZM5.23491 6.43306C5.47899 6.67714 5.47899 7.07286 5.23491 7.31694L3.17685 9.375H12.918C13.2631 9.375 13.543 9.65482 13.543 10C13.543 10.3452 13.2631 10.625 12.918 10.625H3.17685L5.23491 12.6831C5.47899 12.9271 5.47899 13.3229 5.23491 13.5669C4.99083 13.811 4.5951 13.811 4.35103 13.5669L1.22603 10.4419C0.981949 10.1979 0.981949 9.80214 1.22603 9.55806L4.35103 6.43306C4.5951 6.18898 4.99083 6.18898 5.23491 6.43306Z" fill="#F7F9FA"/>
</svg>
