<svg width="488" height="263" viewBox="0 0 488 263" fill="none" xmlns="http://www.w3.org/2000/svg">
<path d="M245.753 187.288C296.392 187.288 337.653 146.198 337.653 95.7294C337.483 45.0907 296.392 4 245.753 4C194.944 4 153.854 45.0907 153.854 95.5589C153.854 146.198 194.944 187.288 245.753 187.288Z" fill="#17191B" stroke="#181A1D" stroke-width="2" stroke-miterlimit="10"/>
<path d="M343.108 107.323C343.108 126.93 327.252 142.787 307.474 142.787C307.133 142.787 304.234 142.787 282.921 142.787C268.088 142.787 244.388 142.787 206.537 142.787H188.464C164.764 143.298 145.839 124.373 145.839 101.526C145.839 78.5082 164.935 59.4121 188.976 60.6056C209.606 -3.84371 304.064 5.19283 312.077 71.8586C329.809 74.0751 343.108 89.0792 343.108 107.323Z" fill="#757778" stroke="#3A3E42" stroke-width="2" stroke-miterlimit="10"/>
<path d="M311.566 72.0304C310.202 71.8599 308.838 71.8599 307.474 71.8599C300.483 71.8599 293.834 73.9059 288.207 77.4864" fill="#252729"/>
<path d="M311.566 72.0304C310.202 71.8599 308.838 71.8599 307.474 71.8599C300.483 71.8599 293.834 73.9059 288.207 77.4864" stroke="#3A3E42" stroke-width="2" stroke-miterlimit="10" stroke-linecap="round"/>
<path d="M189.5 61C186.833 67.075 185.5 73.4875 185.5 80.2375C185.5 82.9375 185.722 85.4688 186.167 88" fill="#75777C"/>
<path d="M189.5 61C186.833 67.075 185.5 73.4875 185.5 80.2375C185.5 82.9375 185.722 85.4688 186.167 88" stroke="#3A3E42" stroke-width="2" stroke-miterlimit="10" stroke-linecap="round" stroke-linejoin="round"/>
<path d="M227.186 100.649C229.871 100.649 232.143 98.3771 232.143 95.6924C232.143 93.0076 229.871 90.7358 227.186 90.7358C224.501 90.7358 222.229 93.0076 222.229 95.6924C222.229 98.3771 224.501 100.649 227.186 100.649Z" fill="#111315"/>
<path d="M265.186 100.649C267.871 100.649 270.143 98.3771 270.143 95.6924C270.143 93.0076 267.871 90.7358 265.186 90.7358C262.501 90.7358 260.229 93.0076 260.229 95.6924C260.229 98.5837 262.501 100.649 265.186 100.649Z" fill="#111315"/>
<path d="M226.992 79.2951L216.089 85.1821L217.561 87.9079L228.464 82.0208L226.992 79.2951Z" fill="#111315"/>
<path d="M264.512 79.2158L263.04 81.9419L273.944 87.8277L275.416 85.1017L264.512 79.2158Z" fill="#111315"/>
<path d="M246.186 112.215C249.38 112.215 251.969 110.273 251.969 107.878C251.969 105.483 249.38 103.541 246.186 103.541C242.992 103.541 240.403 105.483 240.403 107.878C240.403 110.273 242.992 112.215 246.186 112.215Z" fill="#111315"/>
<path d="M124.654 28.4854C124.654 28.4854 100.82 34.5366 108.043 39.3776C115.265 43.9766 132.358 51.9642 148.487 46.6391C164.617 41.314 148.487 33.8105 148.728 33.8105C148.969 33.8105 124.654 28.4854 124.654 28.4854Z" fill="#252729" stroke="#3A3E42" stroke-width="2" stroke-miterlimit="10"/>
<path d="M95.5234 26.5489C104.19 29.2114 130.913 24.8545 148.005 13.7202C161.487 30.4217 166.543 34.7786 171.357 35.2627C163.894 42.7662 139.098 54.8687 125.135 39.1355C108.764 49.5436 95.5234 26.5489 95.5234 26.5489Z" fill="#252729" stroke="#3A3E42" stroke-width="2" stroke-miterlimit="10"/>
<path d="M317.293 87.0709C326.441 87.555 351.238 76.4207 364.719 61.4136C382.053 74.2422 387.831 77.1468 392.886 76.4207C387.349 85.6186 370.497 105.709 346.664 107.161C329.33 96.9949 317.293 87.0709 317.293 87.0709Z" fill="#252729" stroke="#3A3E42" stroke-width="2" stroke-miterlimit="10"/>
<path d="M244.265 200.609C242.455 191.628 225.495 170.387 207.602 161.069C215.709 141.086 217.083 134.767 215.12 130.051C225.407 133.123 249.062 144.439 256.405 167.16C250.877 186.479 244.265 200.609 244.265 200.609Z" fill="#252729" stroke="#3A3E42" stroke-width="2" stroke-miterlimit="10"/>
<path d="M18.7717 235.344V255H13.9837V246.908H6.53572V255H1.74772V235.344H6.53572V243.044H13.9837V235.344H18.7717ZM36.9562 246.936C36.9562 247.384 36.9282 247.851 36.8722 248.336H26.0362C26.1109 249.307 26.4189 250.053 26.9602 250.576C27.5202 251.08 28.2015 251.332 29.0042 251.332C30.1989 251.332 31.0295 250.828 31.4962 249.82H36.5922C36.3309 250.847 35.8549 251.771 35.1642 252.592C34.4922 253.413 33.6429 254.057 32.6162 254.524C31.5895 254.991 30.4415 255.224 29.1722 255.224C27.6415 255.224 26.2789 254.897 25.0842 254.244C23.8895 253.591 22.9562 252.657 22.2842 251.444C21.6122 250.231 21.2762 248.812 21.2762 247.188C21.2762 245.564 21.6029 244.145 22.2562 242.932C22.9282 241.719 23.8615 240.785 25.0562 240.132C26.2509 239.479 27.6229 239.152 29.1722 239.152C30.6842 239.152 32.0282 239.469 33.2042 240.104C34.3802 240.739 35.2949 241.644 35.9482 242.82C36.6202 243.996 36.9562 245.368 36.9562 246.936ZM32.0562 245.676C32.0562 244.855 31.7762 244.201 31.2162 243.716C30.6562 243.231 29.9562 242.988 29.1162 242.988C28.3135 242.988 27.6322 243.221 27.0722 243.688C26.5309 244.155 26.1949 244.817 26.0642 245.676H32.0562ZM38.5301 247.188C38.5301 245.564 38.8568 244.145 39.5101 242.932C40.1821 241.719 41.1061 240.785 42.2821 240.132C43.4768 239.479 44.8394 239.152 46.3701 239.152C48.3301 239.152 49.9634 239.665 51.2701 240.692C52.5954 241.719 53.4634 243.165 53.8741 245.032H48.7781C48.3488 243.837 47.5181 243.24 46.2861 243.24C45.4088 243.24 44.7088 243.585 44.1861 244.276C43.6634 244.948 43.4021 245.919 43.4021 247.188C43.4021 248.457 43.6634 249.437 44.1861 250.128C44.7088 250.8 45.4088 251.136 46.2861 251.136C47.5181 251.136 48.3488 250.539 48.7781 249.344H53.8741C53.4634 251.173 52.5954 252.611 51.2701 253.656C49.9448 254.701 48.3114 255.224 46.3701 255.224C44.8394 255.224 43.4768 254.897 42.2821 254.244C41.1061 253.591 40.1821 252.657 39.5101 251.444C38.8568 250.231 38.5301 248.812 38.5301 247.188ZM66.0392 239.208C67.8312 239.208 69.2686 239.805 70.3512 241C71.4339 242.176 71.9752 243.8 71.9752 245.872V255H67.2152V246.516C67.2152 245.471 66.9446 244.659 66.4032 244.08C65.8619 243.501 65.1339 243.212 64.2192 243.212C63.3046 243.212 62.5766 243.501 62.0352 244.08C61.4939 244.659 61.2232 245.471 61.2232 246.516V255H56.4352V234.28H61.2232V241.476C61.7086 240.785 62.3712 240.235 63.2112 239.824C64.0512 239.413 64.9939 239.208 66.0392 239.208ZM80.284 247.216C80.284 245.667 80.6013 244.285 81.236 243.072C81.8893 241.859 82.7573 240.916 83.84 240.244C84.9413 239.553 86.136 239.208 87.424 239.208C88.4133 239.208 89.3 239.385 90.084 239.74C90.868 240.076 91.5027 240.552 91.988 241.168V239.376H96.776V262.448H91.988V253.04C91.4467 253.693 90.784 254.216 90 254.608C89.2347 255 88.3573 255.196 87.368 255.196C86.0987 255.196 84.9227 254.86 83.84 254.188C82.7573 253.516 81.8893 252.573 81.236 251.36C80.6013 250.147 80.284 248.765 80.284 247.216ZM91.988 247.188C91.988 246.348 91.82 245.648 91.484 245.088C91.1667 244.509 90.7467 244.08 90.224 243.8C89.7013 243.501 89.1507 243.352 88.572 243.352C88.012 243.352 87.4707 243.501 86.948 243.8C86.4253 244.08 85.996 244.509 85.66 245.088C85.324 245.667 85.156 246.376 85.156 247.216C85.156 248.056 85.324 248.765 85.66 249.344C85.996 249.904 86.4253 250.333 86.948 250.632C87.4707 250.912 88.012 251.052 88.572 251.052C89.132 251.052 89.6733 250.912 90.196 250.632C90.7373 250.333 91.1667 249.895 91.484 249.316C91.82 248.737 91.988 248.028 91.988 247.188ZM99.2879 247.16C99.2879 245.555 99.5866 244.145 100.184 242.932C100.8 241.719 101.631 240.785 102.676 240.132C103.721 239.479 104.888 239.152 106.176 239.152C107.277 239.152 108.239 239.376 109.06 239.824C109.9 240.272 110.544 240.86 110.992 241.588V239.376H115.78V255H110.992V252.788C110.525 253.516 109.872 254.104 109.032 254.552C108.211 255 107.249 255.224 106.148 255.224C104.879 255.224 103.721 254.897 102.676 254.244C101.631 253.572 100.8 252.629 100.184 251.416C99.5866 250.184 99.2879 248.765 99.2879 247.16ZM110.992 247.188C110.992 245.993 110.656 245.051 109.984 244.36C109.331 243.669 108.528 243.324 107.576 243.324C106.624 243.324 105.812 243.669 105.14 244.36C104.487 245.032 104.16 245.965 104.16 247.16C104.16 248.355 104.487 249.307 105.14 250.016C105.812 250.707 106.624 251.052 107.576 251.052C108.528 251.052 109.331 250.707 109.984 250.016C110.656 249.325 110.992 248.383 110.992 247.188ZM128.764 239.208C130.593 239.208 132.049 239.805 133.132 241C134.233 242.176 134.784 243.8 134.784 245.872V255H130.024V246.516C130.024 245.471 129.753 244.659 129.212 244.08C128.67 243.501 127.942 243.212 127.028 243.212C126.113 243.212 125.385 243.501 124.844 244.08C124.302 244.659 124.032 245.471 124.032 246.516V255H119.244V239.376H124.032V241.448C124.517 240.757 125.17 240.216 125.992 239.824C126.813 239.413 127.737 239.208 128.764 239.208ZM137.159 247.16C137.159 245.555 137.458 244.145 138.055 242.932C138.671 241.719 139.502 240.785 140.547 240.132C141.592 239.479 142.759 239.152 144.047 239.152C145.074 239.152 146.007 239.367 146.847 239.796C147.706 240.225 148.378 240.804 148.863 241.532V234.28H153.651V255H148.863V252.76C148.415 253.507 147.771 254.104 146.931 254.552C146.11 255 145.148 255.224 144.047 255.224C142.759 255.224 141.592 254.897 140.547 254.244C139.502 253.572 138.671 252.629 138.055 251.416C137.458 250.184 137.159 248.765 137.159 247.16ZM148.863 247.188C148.863 245.993 148.527 245.051 147.855 244.36C147.202 243.669 146.399 243.324 145.447 243.324C144.495 243.324 143.683 243.669 143.011 244.36C142.358 245.032 142.031 245.965 142.031 247.16C142.031 248.355 142.358 249.307 143.011 250.016C143.683 250.707 144.495 251.052 145.447 251.052C146.399 251.052 147.202 250.707 147.855 250.016C148.527 249.325 148.863 248.383 148.863 247.188ZM156.163 247.16C156.163 245.555 156.462 244.145 157.059 242.932C157.675 241.719 158.506 240.785 159.551 240.132C160.596 239.479 161.763 239.152 163.051 239.152C164.152 239.152 165.114 239.376 165.935 239.824C166.775 240.272 167.419 240.86 167.867 241.588V239.376H172.655V255H167.867V252.788C167.4 253.516 166.747 254.104 165.907 254.552C165.086 255 164.124 255.224 163.023 255.224C161.754 255.224 160.596 254.897 159.551 254.244C158.506 253.572 157.675 252.629 157.059 251.416C156.462 250.184 156.163 248.765 156.163 247.16ZM167.867 247.188C167.867 245.993 167.531 245.051 166.859 244.36C166.206 243.669 165.403 243.324 164.451 243.324C163.499 243.324 162.687 243.669 162.015 244.36C161.362 245.032 161.035 245.965 161.035 247.16C161.035 248.355 161.362 249.307 162.015 250.016C162.687 250.707 163.499 251.052 164.451 251.052C165.403 251.052 166.206 250.707 166.859 250.016C167.531 249.325 167.867 248.383 167.867 247.188ZM192.079 239.376L182.279 262.42H177.127L180.711 254.468L174.355 239.376H179.703L183.315 249.148L186.899 239.376H192.079ZM219.68 239.208C221.621 239.208 223.161 239.796 224.3 240.972C225.457 242.148 226.036 243.781 226.036 245.872V255H221.276V246.516C221.276 245.508 221.005 244.733 220.464 244.192C219.941 243.632 219.213 243.352 218.28 243.352C217.346 243.352 216.609 243.632 216.068 244.192C215.545 244.733 215.284 245.508 215.284 246.516V255H210.524V246.516C210.524 245.508 210.253 244.733 209.712 244.192C209.189 243.632 208.461 243.352 207.528 243.352C206.594 243.352 205.857 243.632 205.316 244.192C204.793 244.733 204.532 245.508 204.532 246.516V255H199.744V239.376H204.532V241.336C205.017 240.683 205.652 240.169 206.436 239.796C207.22 239.404 208.106 239.208 209.096 239.208C210.272 239.208 211.317 239.46 212.232 239.964C213.165 240.468 213.893 241.187 214.416 242.12C214.957 241.261 215.694 240.561 216.628 240.02C217.561 239.479 218.578 239.208 219.68 239.208ZM228.432 247.16C228.432 245.555 228.731 244.145 229.328 242.932C229.944 241.719 230.775 240.785 231.82 240.132C232.866 239.479 234.032 239.152 235.32 239.152C236.422 239.152 237.383 239.376 238.204 239.824C239.044 240.272 239.688 240.86 240.136 241.588V239.376H244.924V255H240.136V252.788C239.67 253.516 239.016 254.104 238.176 254.552C237.355 255 236.394 255.224 235.292 255.224C234.023 255.224 232.866 254.897 231.82 254.244C230.775 253.572 229.944 252.629 229.328 251.416C228.731 250.184 228.432 248.765 228.432 247.16ZM240.136 247.188C240.136 245.993 239.8 245.051 239.128 244.36C238.475 243.669 237.672 243.324 236.72 243.324C235.768 243.324 234.956 243.669 234.284 244.36C233.631 245.032 233.304 245.965 233.304 247.16C233.304 248.355 233.631 249.307 234.284 250.016C234.956 250.707 235.768 251.052 236.72 251.052C237.672 251.052 238.475 250.707 239.128 250.016C239.8 249.325 240.136 248.383 240.136 247.188ZM249.48 235.344H254.38L251.244 242.848H248.024L249.48 235.344ZM261.981 234.28V255H257.193V234.28H261.981ZM280.879 239.376V255H276.091V252.872C275.606 253.563 274.943 254.123 274.103 254.552C273.282 254.963 272.367 255.168 271.359 255.168C270.164 255.168 269.11 254.907 268.195 254.384C267.28 253.843 266.571 253.068 266.067 252.06C265.563 251.052 265.311 249.867 265.311 248.504V239.376H270.071V247.86C270.071 248.905 270.342 249.717 270.883 250.296C271.424 250.875 272.152 251.164 273.067 251.164C274 251.164 274.738 250.875 275.279 250.296C275.82 249.717 276.091 248.905 276.091 247.86V239.376H280.879ZM304.254 239.208C306.195 239.208 307.735 239.796 308.874 240.972C310.031 242.148 310.61 243.781 310.61 245.872V255H305.85V246.516C305.85 245.508 305.579 244.733 305.038 244.192C304.515 243.632 303.787 243.352 302.854 243.352C301.921 243.352 301.183 243.632 300.642 244.192C300.119 244.733 299.858 245.508 299.858 246.516V255H295.098V246.516C295.098 245.508 294.827 244.733 294.286 244.192C293.763 243.632 293.035 243.352 292.102 243.352C291.169 243.352 290.431 243.632 289.89 244.192C289.367 244.733 289.106 245.508 289.106 246.516V255H284.318V239.376H289.106V241.336C289.591 240.683 290.226 240.169 291.01 239.796C291.794 239.404 292.681 239.208 293.67 239.208C294.846 239.208 295.891 239.46 296.806 239.964C297.739 240.468 298.467 241.187 298.99 242.12C299.531 241.261 300.269 240.561 301.202 240.02C302.135 239.479 303.153 239.208 304.254 239.208ZM321.071 255.224C319.54 255.224 318.159 254.897 316.927 254.244C315.713 253.591 314.752 252.657 314.043 251.444C313.352 250.231 313.007 248.812 313.007 247.188C313.007 245.583 313.361 244.173 314.071 242.96C314.78 241.728 315.751 240.785 316.983 240.132C318.215 239.479 319.596 239.152 321.127 239.152C322.657 239.152 324.039 239.479 325.271 240.132C326.503 240.785 327.473 241.728 328.183 242.96C328.892 244.173 329.247 245.583 329.247 247.188C329.247 248.793 328.883 250.212 328.155 251.444C327.445 252.657 326.465 253.591 325.215 254.244C323.983 254.897 322.601 255.224 321.071 255.224ZM321.071 251.08C321.985 251.08 322.76 250.744 323.395 250.072C324.048 249.4 324.375 248.439 324.375 247.188C324.375 245.937 324.057 244.976 323.423 244.304C322.807 243.632 322.041 243.296 321.127 243.296C320.193 243.296 319.419 243.632 318.803 244.304C318.187 244.957 317.879 245.919 317.879 247.188C317.879 248.439 318.177 249.4 318.775 250.072C319.391 250.744 320.156 251.08 321.071 251.08ZM340.495 250.94V255H338.059C336.323 255 334.969 254.58 333.999 253.74C333.028 252.881 332.543 251.491 332.543 249.568V243.352H330.639V239.376H332.543V235.568H337.331V239.376H340.467V243.352H337.331V249.624C337.331 250.091 337.443 250.427 337.667 250.632C337.891 250.837 338.264 250.94 338.787 250.94H340.495ZM357.803 250.94V255H355.367C353.631 255 352.278 254.58 351.307 253.74C350.337 252.881 349.851 251.491 349.851 249.568V243.352H347.947V239.376H349.851V235.568H354.639V239.376H357.775V243.352H354.639V249.624C354.639 250.091 354.751 250.427 354.975 250.632C355.199 250.837 355.573 250.94 356.095 250.94H357.803ZM367.582 255.224C366.052 255.224 364.67 254.897 363.438 254.244C362.225 253.591 361.264 252.657 360.554 251.444C359.864 250.231 359.518 248.812 359.518 247.188C359.518 245.583 359.873 244.173 360.582 242.96C361.292 241.728 362.262 240.785 363.494 240.132C364.726 239.479 366.108 239.152 367.638 239.152C369.169 239.152 370.55 239.479 371.782 240.132C373.014 240.785 373.985 241.728 374.694 242.96C375.404 244.173 375.758 245.583 375.758 247.188C375.758 248.793 375.394 250.212 374.666 251.444C373.957 252.657 372.977 253.591 371.726 254.244C370.494 254.897 369.113 255.224 367.582 255.224ZM367.582 251.08C368.497 251.08 369.272 250.744 369.906 250.072C370.56 249.4 370.886 248.439 370.886 247.188C370.886 245.937 370.569 244.976 369.934 244.304C369.318 243.632 368.553 243.296 367.638 243.296C366.705 243.296 365.93 243.632 365.314 244.304C364.698 244.957 364.39 245.919 364.39 247.188C364.39 248.439 364.689 249.4 365.286 250.072C365.902 250.744 366.668 251.08 367.582 251.08ZM383.087 241.588C383.553 240.86 384.197 240.272 385.019 239.824C385.84 239.376 386.801 239.152 387.903 239.152C389.191 239.152 390.357 239.479 391.403 240.132C392.448 240.785 393.269 241.719 393.867 242.932C394.483 244.145 394.791 245.555 394.791 247.16C394.791 248.765 394.483 250.184 393.867 251.416C393.269 252.629 392.448 253.572 391.403 254.244C390.357 254.897 389.191 255.224 387.903 255.224C386.82 255.224 385.859 255 385.019 254.552C384.197 254.104 383.553 253.525 383.087 252.816V262.448H378.299V239.376H383.087V241.588ZM389.919 247.16C389.919 245.965 389.583 245.032 388.911 244.36C388.257 243.669 387.445 243.324 386.475 243.324C385.523 243.324 384.711 243.669 384.039 244.36C383.385 245.051 383.059 245.993 383.059 247.188C383.059 248.383 383.385 249.325 384.039 250.016C384.711 250.707 385.523 251.052 386.475 251.052C387.427 251.052 388.239 250.707 388.911 250.016C389.583 249.307 389.919 248.355 389.919 247.16ZM399.71 237.752C398.87 237.752 398.18 237.509 397.638 237.024C397.116 236.52 396.854 235.904 396.854 235.176C396.854 234.429 397.116 233.813 397.638 233.328C398.18 232.824 398.87 232.572 399.71 232.572C400.532 232.572 401.204 232.824 401.726 233.328C402.268 233.813 402.538 234.429 402.538 235.176C402.538 235.904 402.268 236.52 401.726 237.024C401.204 237.509 400.532 237.752 399.71 237.752ZM402.09 239.376V255H397.302V239.376H402.09ZM410.348 234.28V255H405.56V234.28H410.348ZM433.754 239.208C435.695 239.208 437.235 239.796 438.374 240.972C439.531 242.148 440.11 243.781 440.11 245.872V255H435.35V246.516C435.35 245.508 435.079 244.733 434.538 244.192C434.015 243.632 433.287 243.352 432.354 243.352C431.421 243.352 430.683 243.632 430.142 244.192C429.619 244.733 429.358 245.508 429.358 246.516V255H424.598V246.516C424.598 245.508 424.327 244.733 423.786 244.192C423.263 243.632 422.535 243.352 421.602 243.352C420.669 243.352 419.931 243.632 419.39 244.192C418.867 244.733 418.606 245.508 418.606 246.516V255H413.818V239.376H418.606V241.336C419.091 240.683 419.726 240.169 420.51 239.796C421.294 239.404 422.181 239.208 423.17 239.208C424.346 239.208 425.391 239.46 426.306 239.964C427.239 240.468 427.967 241.187 428.49 242.12C429.031 241.261 429.769 240.561 430.702 240.02C431.635 239.479 432.653 239.208 433.754 239.208ZM442.507 247.16C442.507 245.555 442.805 244.145 443.403 242.932C444.019 241.719 444.849 240.785 445.895 240.132C446.94 239.479 448.107 239.152 449.395 239.152C450.496 239.152 451.457 239.376 452.279 239.824C453.119 240.272 453.763 240.86 454.211 241.588V239.376H458.999V255H454.211V252.788C453.744 253.516 453.091 254.104 452.251 254.552C451.429 255 450.468 255.224 449.367 255.224C448.097 255.224 446.94 254.897 445.895 254.244C444.849 253.572 444.019 252.629 443.403 251.416C442.805 250.184 442.507 248.765 442.507 247.16ZM454.211 247.188C454.211 245.993 453.875 245.051 453.203 244.36C452.549 243.669 451.747 243.324 450.795 243.324C449.843 243.324 449.031 243.669 448.359 244.36C447.705 245.032 447.379 245.965 447.379 247.16C447.379 248.355 447.705 249.307 448.359 250.016C449.031 250.707 449.843 251.052 450.795 251.052C451.747 251.052 452.549 250.707 453.203 250.016C453.875 249.325 454.211 248.383 454.211 247.188ZM461.511 247.16C461.511 245.555 461.809 244.145 462.407 242.932C463.023 241.719 463.853 240.785 464.899 240.132C465.944 239.479 467.111 239.152 468.399 239.152C469.425 239.152 470.359 239.367 471.199 239.796C472.057 240.225 472.729 240.804 473.215 241.532V234.28H478.003V255H473.215V252.76C472.767 253.507 472.123 254.104 471.283 254.552C470.461 255 469.5 255.224 468.399 255.224C467.111 255.224 465.944 254.897 464.899 254.244C463.853 253.572 463.023 252.629 462.407 251.416C461.809 250.184 461.511 248.765 461.511 247.16ZM473.215 247.188C473.215 245.993 472.879 245.051 472.207 244.36C471.553 243.669 470.751 243.324 469.799 243.324C468.847 243.324 468.035 243.669 467.363 244.36C466.709 245.032 466.383 245.965 466.383 247.16C466.383 248.355 466.709 249.307 467.363 250.016C468.035 250.707 468.847 251.052 469.799 251.052C470.751 251.052 471.553 250.707 472.207 250.016C472.879 249.325 473.215 248.383 473.215 247.188ZM483.874 237.752C483.034 237.752 482.344 237.509 481.802 237.024C481.28 236.52 481.018 235.904 481.018 235.176C481.018 234.429 481.28 233.813 481.802 233.328C482.344 232.824 483.034 232.572 483.874 232.572C484.696 232.572 485.368 232.824 485.89 233.328C486.432 233.813 486.702 234.429 486.702 235.176C486.702 235.904 486.432 236.52 485.89 237.024C485.368 237.509 484.696 237.752 483.874 237.752ZM486.254 239.376V255H481.466V239.376H486.254Z" fill="#F7F9FA"/>
</svg>
