<svg width="16" height="16" viewBox="0 0 16 16" fill="none" xmlns="http://www.w3.org/2000/svg">
<path d="M8.40013 14.3225L8.00013 14.7892L7.60013 14.3225C6.8668 13.3892 5.60013 12.5225 1.4668 12.5225C0.866797 12.5225 0.466797 12.0559 0.466797 11.4559V2.52252C0.466797 2.38919 0.466797 2.25586 0.533464 2.12252C0.60013 1.98919 0.666797 1.92252 0.733464 1.78919C0.80013 1.72252 0.933464 1.65586 1.0668 1.58919C1.2668 1.52252 1.40013 1.52252 1.53346 1.52252C5.00013 1.52252 7.0668 2.25586 8.00013 3.72252C9.00013 2.25586 11.0668 1.52252 14.5335 1.52252C14.6668 1.52252 14.8001 1.52252 14.9335 1.58919C15.0668 1.65586 15.1335 1.72252 15.2668 1.78919C15.3335 1.85586 15.4668 1.98919 15.4668 2.12252C15.5335 2.25586 15.5335 2.38919 15.5335 2.52252V11.5225C15.5335 11.7892 15.4001 12.0559 15.2668 12.2559C15.0668 12.4559 14.8001 12.5225 14.5335 12.5225C10.4668 12.5225 9.20013 13.3892 8.40013 14.3225ZM8.53346 5.05586V12.8559C9.80013 11.9225 11.6668 11.5225 14.5335 11.5225V2.52252C9.8668 2.52252 8.8668 3.92252 8.53346 5.05586ZM1.6668 11.5225C4.4668 11.5225 6.33346 11.9225 7.53346 12.8559V5.05586C7.20013 3.85586 6.20013 2.52252 1.53346 2.52252V11.4559C1.53346 11.5225 1.53346 11.5225 1.53346 11.5225C1.60013 11.5225 1.60013 11.5225 1.6668 11.5225Z" fill="#F7F9FA" fill-opacity="0.6"/>
</svg>
