<svg width="61" height="20" viewBox="0 0 61 20" fill="none" xmlns="http://www.w3.org/2000/svg">
<path d="M21.8535 17.3485C21.9901 16.979 22.3932 16.8024 22.7603 16.9275C23.1175 17.0492 23.4825 17.1389 23.8652 17.1389C24.3928 17.1389 24.845 17.0389 25.2219 16.8389C25.9525 16.4948 26.2231 15.62 26.5333 14.9237L22.8634 4.93677C22.7355 4.58866 22.9876 4.21732 23.352 4.21732H25.5367C25.8351 4.21732 26.1002 4.41142 26.1958 4.69981L28.116 10.4935L30.0363 4.69981C30.1319 4.41142 30.397 4.21732 30.6953 4.21732H32.7408C33.1061 4.21732 33.3584 4.59053 33.2286 4.939L29.0883 16.0544C28.6059 17.3158 27.9728 18.2849 27.189 18.9617C26.4052 19.654 25.3726 20.0001 24.0913 20.0001C23.3361 20.0001 22.5972 19.8592 21.888 19.6139C21.4534 19.4636 21.2554 18.9667 21.4173 18.5286L21.8535 17.3485Z" fill="white"/>
<path d="M18.4247 13.9777C17.6266 14.7922 16.6133 15.0211 15.4738 15.016C13.4487 15.0071 11.7652 13.9944 11.0989 12.0395C10.5958 10.5634 10.5851 8.78378 11.0989 7.30926C11.7739 5.37181 13.447 4.21732 15.4853 4.21732C16.5803 4.21732 17.6031 4.37553 18.4247 5.11721V4.92729C18.4247 4.53519 18.7362 4.21732 19.1204 4.21732H21.5972V15.016H19.1204C18.7362 15.016 18.4247 14.6982 18.4247 14.3061V13.9777ZM17.9951 11.6472C18.4021 11.1088 18.6056 10.432 18.6056 9.61668C18.6056 8.69371 18.3795 7.99379 17.9273 7.51693C17.0422 6.55143 15.347 6.53596 14.5357 7.60922C13.7087 8.71285 13.7299 10.5744 14.5583 11.6703C15.3877 12.7361 17.181 12.7241 17.9951 11.6472Z" fill="white"/>
<path d="M5.15523 0.0639648H2.22628C1.44701 0.0639648 1.05737 0.0639649 0.759732 0.21873C0.497918 0.354866 0.285057 0.57209 0.151656 0.839271C0 1.14302 0 1.54064 0 2.33588V2.83287H4.88391C5.60745 2.83287 6.16518 3.02515 6.55709 3.40972C6.60797 3.45587 6.65566 3.5037 6.70018 3.55321C7.01178 3.89981 7.16758 4.32884 7.16758 4.84032C7.16758 4.87878 7.16685 4.91685 7.16538 4.95452C7.14329 5.51966 6.95561 5.99692 6.60232 6.38629C6.5571 6.43821 6.50869 6.48688 6.45711 6.53231C6.09605 6.8503 5.57918 7.0093 4.90652 7.0093H0V12.7441C0 13.5394 0 13.937 0.151656 14.2407C0.285057 14.5079 0.497918 14.7251 0.759732 14.8613C1.05737 15.016 1.44701 15.016 2.22628 15.016H3.02113V9.66283H5.22307C5.97675 9.66283 6.66261 9.55515 7.28064 9.33979C7.91373 9.12443 8.45639 8.80908 8.9086 8.39375C9.36082 7.96303 9.70751 7.43232 9.9487 6.80163C10.2049 6.15555 10.3331 5.41718 10.3331 4.58651C10.3331 3.89428 10.2125 3.27128 9.97131 2.7175C9.73013 2.16372 9.38343 1.69454 8.93122 1.30997C8.479 0.910018 7.92881 0.602363 7.28064 0.387003C6.64754 0.171644 5.93907 0.0639648 5.15523 0.0639648Z" fill="white"/>
<path d="M50.5679 4.95836C50.4213 4.60713 50.6739 4.21725 51.048 4.21725H53.262C53.5503 4.21725 53.8087 4.3987 53.9118 4.67346L55.8435 9.82428L57.7535 4.67585C57.8559 4.39983 58.115 4.21725 58.4042 4.21725H60.4776C60.8525 4.21725 61.1051 4.60867 60.957 4.96011L56.8611 14.6788C56.7512 14.9394 56.4999 15.1083 56.222 15.1083H55.2633C54.9844 15.1083 54.7325 14.9383 54.6232 14.6765L50.5679 4.95836Z" fill="white" fill-opacity="0.3"/>
<path d="M45.0058 12.4547C45.3977 12.4547 45.7369 12.3778 46.0233 12.224C46.3248 12.0702 46.5735 11.8702 46.7694 11.6241C46.9805 11.3626 47.1312 11.0626 47.2217 10.7242C47.3272 10.3704 47.3799 10.0012 47.3799 9.61662C47.3799 9.23205 47.3272 8.87055 47.2217 8.53213C47.1312 8.17833 46.9805 7.87836 46.7694 7.63224C46.5735 7.37073 46.3248 7.16306 46.0233 7.00923C45.7369 6.85541 45.3977 6.77849 45.0058 6.77849C44.6139 6.77849 44.2672 6.85541 43.9657 7.00923C43.6793 7.16306 43.4306 7.37073 43.2196 7.63224C43.0236 7.87836 42.8729 8.17833 42.7674 8.53213C42.6618 8.87055 42.6091 9.23205 42.6091 9.61662C42.6091 10.0012 42.6618 10.3704 42.7674 10.7242C42.8729 11.0626 43.0236 11.3626 43.2196 11.6241C43.4306 11.8702 43.6793 12.0702 43.9657 12.224C44.2672 12.3778 44.6139 12.4547 45.0058 12.4547ZM45.0058 15.3621C44.1466 15.3621 43.3703 15.216 42.6769 14.9237C41.9986 14.616 41.4107 14.2084 40.9133 13.7007C40.4309 13.1777 40.0616 12.5701 39.8054 11.8779C39.5491 11.1703 39.421 10.4165 39.421 9.61662C39.421 8.81671 39.5491 8.07065 39.8054 7.37842C40.0616 6.68619 40.4309 6.07857 40.9133 5.55556C41.4107 5.03254 41.9986 4.6249 42.6769 4.33263C43.3703 4.02497 44.1466 3.87114 45.0058 3.87114C45.865 3.87114 46.6338 4.02497 47.3121 4.33263C48.0055 4.6249 48.5934 5.03254 49.0757 5.55556C49.5732 6.07857 49.95 6.68619 50.2063 7.37842C50.4625 8.07065 50.5906 8.81671 50.5906 9.61662C50.5906 10.4165 50.4625 11.1703 50.2063 11.8779C49.95 12.5701 49.5732 13.1777 49.0757 13.7007C48.5934 14.2084 48.0055 14.616 47.3121 14.9237C46.6338 15.216 45.865 15.3621 45.0058 15.3621Z" fill="white" fill-opacity="0.3"/>
<path d="M34.6592 1.41995C34.6592 0.635732 35.2821 0 36.0506 0H38.0056V15.016H36.0506C35.2821 15.016 34.6592 14.3802 34.6592 13.596V1.41995Z" fill="white" fill-opacity="0.3"/>
<ellipse cx="5.01982" cy="4.93057" rx="0.958293" ry="0.977938" fill="#1B9684"/>
</svg>
