<svg width="21" height="18" viewBox="0 0 21 18" fill="none" xmlns="http://www.w3.org/2000/svg">
<path fill-rule="evenodd" clip-rule="evenodd" d="M5.25 16.5C5.25 15.6716 5.92157 15 6.75 15C7.57843 15 8.25 15.6716 8.25 16.5C8.25 17.3284 7.57843 18 6.75 18C5.92157 18 5.25 17.3284 5.25 16.5ZM15.75 16.5C15.75 15.6716 16.4216 15 17.25 15C18.0784 15 18.75 15.6716 18.75 16.5C18.75 17.3284 18.0784 18 17.25 18C16.4216 18 15.75 17.3284 15.75 16.5Z" fill="#F7F9FA"/>
<path fill-rule="evenodd" clip-rule="evenodd" d="M0.75 0C0.335786 0 0 0.335786 0 0.75C0 1.16421 0.335786 1.5 0.75 1.5H3.12076L5.26141 13.6303C5.32466 13.9887 5.63607 14.25 6 14.25H18C18.4142 14.25 18.75 13.9142 18.75 13.5C18.75 13.0858 18.4142 12.75 18 12.75H6.62924L6.36453 11.25H17.692C17.9522 11.2502 18.2044 11.1602 18.4056 10.9953C18.6069 10.8304 18.7448 10.6008 18.7959 10.3457L20.1459 3.59568C20.1786 3.43242 20.1746 3.26395 20.1342 3.10243C20.0939 2.94085 20.0182 2.79026 19.9126 2.66152C19.807 2.53278 19.6741 2.42907 19.5235 2.3579C19.3731 2.28681 19.2088 2.24996 19.0425 2.25H4.77629L4.48859 0.619661C4.42534 0.261268 4.11393 0 3.75 0H0.75ZM6.09982 9.75H17.3853L18.5853 3.75H5.041L6.09982 9.75Z" fill="#F7F9FA"/>
</svg>
