<svg width="24" height="24" viewBox="0 0 24 24" fill="none" xmlns="http://www.w3.org/2000/svg">
<path fill-rule="evenodd" clip-rule="evenodd" d="M9.57823 9.13925C9.16803 8.7865 8.84547 8.33469 8.64765 7.82093C8.50593 7.45285 8.42825 7.05298 8.42825 6.63496C8.42825 4.81155 9.90642 3.33337 11.7298 3.33337C13.5533 3.33337 15.0314 4.81155 15.0314 6.63496C15.0314 7.096 14.9369 7.53497 14.7662 7.93356C14.5824 8.36281 14.3102 8.74522 13.9726 9.05792L15.6505 10.2423V12.4127H14.0079C14.0614 13.0923 14.3733 13.7723 14.8276 14.4127C15.0458 14.7204 15.2968 15.0189 15.5678 15.3039C16.4543 16.2359 17.5208 16.9876 18.229 17.3923L18.333 17.4517V20.6667H5.33301V17.4517L5.43698 17.3923C6.14524 16.9876 7.21173 16.2359 8.09817 15.3039C8.3692 15.0189 8.62026 14.7204 8.83846 14.4127C9.29273 13.7723 9.60464 13.0923 9.65815 12.4127H8.01555V10.2423L9.57823 9.13925Z" stroke="#9DA1A3" stroke-width="1.5" stroke-linecap="round" stroke-linejoin="round"/>
</svg>
