<svg width="24" height="24" viewBox="0 0 24 24" fill="none" xmlns="http://www.w3.org/2000/svg">
<path fill-rule="evenodd" clip-rule="evenodd" d="M11.4697 5.46967C11.7626 5.17678 12.2374 5.17678 12.5303 5.46967L16.5303 9.46967C16.8232 9.76256 16.8232 10.2374 16.5303 10.5303C16.2374 10.8232 15.7626 10.8232 15.4697 10.5303L12 7.06066L8.53033 10.5303C8.23744 10.8232 7.76256 10.8232 7.46967 10.5303C7.17678 10.2374 7.17678 9.76256 7.46967 9.46967L11.4697 5.46967ZM7.46967 13.4697C7.76256 13.1768 8.23744 13.1768 8.53033 13.4697L12 16.9393L15.4697 13.4697C15.7626 13.1768 16.2374 13.1768 16.5303 13.4697C16.8232 13.7626 16.8232 14.2374 16.5303 14.5303L12.5303 18.5303C12.2374 18.8232 11.7626 18.8232 11.4697 18.5303L7.46967 14.5303C7.17678 14.2374 7.17678 13.7626 7.46967 13.4697Z" fill="#F7F9FA"/>
</svg>
