<svg width="15" height="14" viewBox="0 0 15 14" fill="none" xmlns="http://www.w3.org/2000/svg">
<path d="M10.2093 0C8.45609 0 7.03483 1.49238 7.03483 3.33333C7.03483 3.61152 7.06728 3.88174 7.12843 4.14006C5.44266 4.14006 2.90352 3.79923 0.782938 1.67467C0.500952 1.39216 -0.019023 1.58105 0.000536535 1.97973C0.314808 8.38555 3.05821 10.2541 4.47099 10.3704C3.5587 11.2714 2.23349 11.9826 0.89998 12.3018C0.548043 12.3861 0.461103 12.7713 0.80524 12.8833C1.75943 13.1936 3.12521 13.3132 3.86036 13.3333C9.06106 13.3333 13.2881 8.95595 13.3822 3.51858C14.065 3.07454 14.5023 2.11042 14.7481 1.42742C14.8079 1.26108 14.5353 1.06727 14.3721 1.13522C13.8621 1.34756 13.2145 1.3979 12.6629 1.21817C12.0807 0.474388 11.1978 0 10.2093 0Z" fill="#F7F9FA" fill-opacity="0.75"/>
</svg>
