<svg width="60" height="24" viewBox="0 0 60 24" fill="none" xmlns="http://www.w3.org/2000/svg">
<g clip-path="url(#clip0_1427_367022)">
<path fill-rule="evenodd" clip-rule="evenodd" d="M11.8657 23.5279C18.2972 23.5279 23.5093 18.3095 23.5093 11.8703C23.5093 5.41994 18.2972 0.201558 11.8657 0.200195C5.43832 0.200195 0.220703 5.41994 0.220703 11.8703C0.220703 18.3081 5.43975 23.5279 11.8657 23.5279ZM11.8643 4.19636C12.3176 4.19636 12.7654 4.21435 13.2008 4.25447V10.4777H10.5333V4.25447C10.9687 4.21435 11.4165 4.19636 11.8643 4.19636ZM16.3917 7.12944C17.4319 7.31491 18.4252 7.57238 19.3663 7.88103H19.3677V12.3838C19.3677 16.5184 16.0087 19.8958 11.8657 19.8958C7.72961 19.8958 4.37055 16.5184 4.37055 12.3838V7.88103C5.31158 7.57238 6.30495 7.31625 7.34522 7.12944V12.3547C7.34522 16.117 8.94345 18.0936 11.8657 18.0936C14.7989 18.0936 16.3917 16.117 16.3917 12.3547V7.12944ZM54.7412 6.0721C55.1311 5.42846 55.9121 5.00216 56.9554 5.00216C58.7149 5.00216 59.5649 6.12468 59.5688 7.51166V10.8434H57.9254V7.74423C57.9254 7.08256 57.5521 6.49847 56.7599 6.49847C55.9677 6.49847 55.5777 7.06046 55.5777 7.72068V10.8434H53.9338V7.72068C53.9338 7.06046 53.5191 6.49847 52.7214 6.49847C51.9292 6.49847 51.5792 7.08401 51.5792 7.74423V10.8434H49.9356V7.51032C49.9356 6.12468 50.8379 5.00216 52.5919 5.00216C53.4888 5.00216 54.3444 5.42846 54.7412 6.0721ZM41.4801 6.50539V5.11287H36.1481V6.50539H39.306L36.02 9.45231V10.8449H41.6785V9.45231H38.1996L41.4801 6.50539ZM47.0381 8.11383C47.0381 9.026 46.5255 9.44678 45.7678 9.44678C45.0044 9.44678 44.5098 9.026 44.5098 8.11383V5.11287H42.8662V8.17194C42.8662 10.1666 44.5208 10.95 45.7733 10.95C47.0091 10.95 48.6804 10.1666 48.6804 8.17194V5.11287H47.0367V8.11383H47.0381ZM33.2988 8.11383C33.2988 9.026 32.7863 9.44678 32.0286 9.44678C31.2653 9.44678 30.7706 9.026 30.7706 8.11383V5.11287H29.1269V8.17194C29.1269 10.1666 30.7817 10.95 32.0341 10.95C33.2699 10.95 34.9412 10.1666 34.9412 8.17194V5.11287H33.2975V8.11383H33.2988ZM31.9059 19.514C32.1581 19.6192 32.4694 19.6718 32.8387 19.6718C33.2079 19.6718 33.5593 19.6067 33.8927 19.4821C34.2247 19.3548 34.5155 19.1693 34.7634 18.9285C35.0128 18.6876 35.2098 18.39 35.3573 18.0357C35.5047 17.6813 35.5777 17.2771 35.5777 16.8245C35.5777 16.3718 35.5047 15.9677 35.3573 15.6133C35.2098 15.259 35.0128 14.9614 34.7634 14.7205C34.5155 14.4797 34.2247 14.2942 33.8927 14.1669C33.5606 14.0382 33.2093 13.9744 32.8401 13.9744C32.4777 13.9744 32.1718 14.016 31.9238 14.099C31.6745 14.1821 31.4678 14.2762 31.3011 14.3828C31.1054 14.5032 30.947 14.6361 30.8258 14.78H30.7582V11.7155H29.1297V19.662H30.7582V18.6723H30.8367C30.9497 18.8606 31.1013 19.0267 31.2901 19.1721C31.4471 19.2953 31.6538 19.4088 31.9059 19.514ZM33.489 17.8211C33.2134 18.0854 32.8277 18.2184 32.3289 18.2184C31.8316 18.2184 31.4457 18.0854 31.1702 17.8211C30.8947 17.5568 30.7568 17.2231 30.7568 16.8218C30.7568 16.4051 30.9002 16.0688 31.1868 15.8112C31.4733 15.5538 31.8536 15.4251 32.3289 15.4251C32.8263 15.4251 33.2134 15.558 33.489 15.8223C33.7646 16.0867 33.9023 16.4203 33.9023 16.8218C33.9023 17.2231 33.7646 17.5568 33.489 17.8211ZM44.5443 13.9842H46.1742V15.0029H46.2652C46.3629 14.8105 46.5021 14.6402 46.684 14.4935C46.8356 14.3676 47.0408 14.2499 47.3012 14.1392C47.5616 14.0284 47.8951 13.9731 48.3028 13.9731C48.6349 13.9731 48.9463 14.0201 49.2356 14.1129C49.5249 14.2056 49.7784 14.3524 49.9934 14.5531C50.2083 14.7537 50.3764 15.007 50.4977 15.3116C50.6175 15.6161 50.6781 15.9801 50.6781 16.4037V19.6607H49.0482V16.866C49.0482 16.3788 48.916 16.0161 48.6528 15.7794C48.3883 15.5428 48.0411 15.4251 47.6112 15.4251C47.1359 15.4251 46.7777 15.5608 46.5366 15.8293C46.2954 16.0992 46.1742 16.4452 46.1742 16.866V19.6593H44.5443V13.9842ZM53.6652 11.7141H52.0353V19.6607H53.6652V16.8799L56.2004 19.6607H58.1238L55.499 16.7428L57.9199 13.9842H56.0071L53.6652 16.6404V11.7141ZM42.953 17.6868V13.8388H41.2679L41.2803 14.7745C40.9138 14.225 40.2691 13.7239 39.1254 13.7239C37.158 13.7239 36.1467 15.259 36.1467 16.7982C36.1109 18.3568 37.2544 19.9085 39.0414 19.9085C39.9866 19.9085 40.8532 19.4863 41.2679 18.743C41.4361 19.2329 41.8576 19.77 42.7366 19.77H43.7121V18.3319H43.4407C43.0976 18.3319 42.953 18.2059 42.953 17.6868ZM39.4809 18.4232C38.5124 18.4232 37.7904 17.7532 37.7904 16.8107C37.7904 15.8805 38.5124 15.2216 39.4809 15.2216C40.4798 15.2216 41.2018 15.8805 41.2018 16.8107C41.2018 17.7519 40.4798 18.4232 39.4809 18.4232Z" fill="white"/>
</g>
<defs>
<clipPath id="clip0_1427_367022">
<rect width="60" height="24" fill="white"/>
</clipPath>
</defs>
</svg>
