<svg width="22" height="24" viewBox="0 0 22 24" fill="none" xmlns="http://www.w3.org/2000/svg">
<path d="M1.89492 9.38437H1.44375C1.2523 9.38437 1.06868 9.46043 0.933307 9.59581C0.797929 9.73118 0.721875 9.9148 0.721875 10.1062V10.8281C0.721875 11.0196 0.797929 11.2032 0.933307 11.3386C1.06868 11.4739 1.2523 11.55 1.44375 11.55H2.16292C2.15664 13.4969 1.91516 15.436 1.44375 17.325H7.21875C6.74733 15.436 6.50586 13.4969 6.49958 11.55H7.21875C7.4102 11.55 7.59381 11.4739 7.72919 11.3386C7.86457 11.2032 7.94062 11.0196 7.94062 10.8281V10.1062C7.94062 9.9148 7.86457 9.73118 7.72919 9.59581C7.59381 9.46043 7.4102 9.38437 7.21875 9.38437H6.76758L8.2966 5.30668C8.3376 5.1974 8.35149 5.0798 8.33707 4.96397C8.32265 4.84814 8.28036 4.73753 8.21383 4.64163C8.14729 4.54572 8.05849 4.46739 7.95503 4.41333C7.85158 4.35927 7.73657 4.33111 7.61984 4.33125H5.05312V2.8875H6.13594C6.23166 2.8875 6.32347 2.84947 6.39116 2.78178C6.45885 2.71409 6.49687 2.62229 6.49687 2.52656V1.80469C6.49687 1.70896 6.45885 1.61716 6.39116 1.54947C6.32347 1.48178 6.23166 1.44375 6.13594 1.44375H5.05312V0.360937C5.05312 0.265211 5.0151 0.173405 4.94741 0.105716C4.87972 0.0380272 4.78791 0 4.69219 0H3.97031C3.87459 0 3.78278 0.0380272 3.71509 0.105716C3.6474 0.173405 3.60937 0.265211 3.60937 0.360937V1.44375H2.52656C2.43084 1.44375 2.33903 1.48178 2.27134 1.54947C2.20365 1.61716 2.16562 1.70896 2.16562 1.80469V2.52656C2.16562 2.62229 2.20365 2.71409 2.27134 2.78178C2.33903 2.84947 2.43084 2.8875 2.52656 2.8875H3.60937V4.33125H1.04176C0.925031 4.33111 0.810014 4.35927 0.706561 4.41333C0.603109 4.46739 0.514308 4.54572 0.447771 4.64163C0.381234 4.73753 0.338944 4.84814 0.324528 4.96397C0.310111 5.0798 0.323998 5.1974 0.364998 5.30668L1.89492 9.38437ZM13.8929 13.6164L13.7445 17.325H19.4617L19.3133 13.6159L20.4232 12.6779C20.5836 12.5422 20.7124 12.3732 20.8007 12.1826C20.8889 11.992 20.9346 11.7844 20.9344 11.5744V8.9332C20.9344 8.86141 20.9059 8.79255 20.8551 8.74179C20.8043 8.69102 20.7355 8.6625 20.6637 8.6625H19.4735C19.4017 8.6625 19.3328 8.69102 19.2821 8.74179C19.2313 8.79255 19.2028 8.86141 19.2028 8.9332V10.1062H18.0879V8.9332C18.0879 8.86141 18.0594 8.79255 18.0086 8.74179C17.9579 8.69102 17.889 8.6625 17.8172 8.6625H15.3895C15.3177 8.6625 15.2488 8.69102 15.1981 8.74179C15.1473 8.79255 15.1188 8.86141 15.1188 8.9332V10.1062H14.0039V8.9332C14.0039 8.86141 13.9754 8.79255 13.9246 8.74179C13.8739 8.69102 13.805 8.6625 13.7332 8.6625H12.5426C12.4708 8.6625 12.4019 8.69102 12.3512 8.74179C12.3004 8.79255 12.2719 8.86141 12.2719 8.9332V11.5771C12.2722 11.7868 12.3183 11.9939 12.4068 12.184C12.4953 12.3741 12.6242 12.5427 12.7844 12.6779L13.8929 13.6164ZM15.8812 13.7156C15.8812 13.5242 15.9573 13.3406 16.0927 13.2052C16.2281 13.0698 16.4117 12.9937 16.6031 12.9937C16.7946 12.9937 16.9782 13.0698 17.1136 13.2052C17.2489 13.3406 17.325 13.5242 17.325 13.7156V15.1594H15.8812V13.7156ZM21.2574 20.735L20.2125 20.2125V19.4906C20.2125 19.2992 20.1364 19.1156 20.0011 18.9802C19.8657 18.8448 19.6821 18.7687 19.4906 18.7687H13.7156C13.5242 18.7687 13.3406 18.8448 13.2052 18.9802C13.0698 19.1156 12.9937 19.2992 12.9937 19.4906V20.2125L11.9493 20.735C11.8293 20.7949 11.7284 20.887 11.6579 21.001C11.5874 21.1151 11.55 21.2465 11.55 21.3806V22.3781C11.55 22.5696 11.6261 22.7532 11.7614 22.8886C11.8968 23.0239 12.0804 23.1 12.2719 23.1H20.9344C21.1258 23.1 21.3094 23.0239 21.4448 22.8886C21.5802 22.7532 21.6562 22.5696 21.6562 22.3781V21.3806C21.6563 21.2465 21.619 21.1152 21.5485 21.0011C21.4781 20.8871 21.3773 20.7949 21.2574 20.735Z" fill="#1C92E0"/>
<path d="M8.6625 20.2125L9.70741 20.735C9.82728 20.7949 9.92807 20.8871 9.99852 21.0011C10.069 21.1152 10.1063 21.2465 10.1062 21.3806V22.3781C10.1062 22.5696 10.0302 22.7532 9.89482 22.8886C9.75944 23.0239 9.57583 23.1 9.38437 23.1H6.92385C6.64412 23.1 6.3675 23.0413 6.11185 22.9277L0.594003 20.4764C0.232799 20.3159 0 19.9578 0 19.5625V19.4906C0 19.2992 0.0760544 19.1156 0.211432 18.9802C0.34681 18.8448 0.530422 18.7687 0.721875 18.7687H7.94062C8.13208 18.7687 8.31569 18.8448 8.45107 18.9802C8.58644 19.1156 8.6625 19.2992 8.6625 19.4906V20.2125Z" fill="#1C92E0"/>
</svg>
